<?xml version="1.0" standalone="no"?><!DOCTYPE svg PUBLIC "-//W3C//DTD SVG 1.1//EN" "http://www.w3.org/Graphics/SVG/1.1/DTD/svg11.dtd"><svg t="1572446555301" class="icon" viewBox="0 0 1024 1024" version="1.1" xmlns="http://www.w3.org/2000/svg" p-id="3034" xmlns:xlink="http://www.w3.org/1999/xlink" width="200" height="200"><defs><style type="text/css"></style></defs><path d="M512 923.477333 159.082667 553.728c-83.157333-87.082667-97.429333-170.688-94.784-225.493333 3.221333-66.538667 33.386667-129.088 82.730667-171.605333 42.069333-36.181333 96.426667-56.106667 153.066667-56.106667 77.226667 0 153.344 36.437333 211.925333 100.757333 58.602667-64.298667 134.741333-100.757333 211.968-100.757333 56.64 0 110.997333 19.925333 153.045333 56.085333 49.322667 42.538667 79.466667 105.088 82.709333 171.626667 2.666667 54.805333-11.626667 138.410667-94.762667 225.514667L512 923.477333zM300.074667 139.029333c-47.424 0-92.864 16.618667-127.957333 46.784-41.344 35.648-66.624 88.256-69.354667 144.32-3.285333 67.797333 25.813333 135.914667 84.181333 197.056L512 867.733333 837.098667 527.146667c58.346667-61.12 87.424-129.258667 84.138667-197.056-2.709333-56.042667-28.010667-108.672-69.354667-144.341333-35.050667-30.144-80.490667-46.762667-127.914667-46.762667-72.256 0-144.042667 37.888-196.949333 103.914667L512 261.674667l-15.04-18.752C444.096 176.896 372.330667 139.029333 300.074667 139.029333z" p-id="3035"></path></svg>